<svg xmlns="http://www.w3.org/2000/svg" width="341" height="341" version="1.0" viewBox="0 0 256 256">
    <path d="M0 128v128h256V0H0zm45.8-60.3L46 102h42v8H36V72.2c0-20.8.3-38.2.7-38.6s2.5-.6 4.8-.4l4 .3zm28.7 80.7c9 4.1 13.3 12 12.2 21.9-1 8.2-5.2 14.2-21.6 30.9L49.7 217H88v8H36v-3.8c0-3.5 1-4.7 17.6-21.2 9.6-9.6 18.6-19.4 20-21.6 7.1-12 1.7-23.7-10.9-23.7-8.6 0-13.9 3.8-16.1 11.5-1.3 4.2-1.4 4.3-5.7 4.3-3.8 0-4.4-.3-4.7-2.2-1-6.6 8.8-19 16.6-21.1 7-1.9 16.3-1.4 21.7 1.2m134 3.3c2.2 1.2 5.3 3.5 6.9 5.2 2.8 2.9 6.9 12.8 6 14.3-.3.5-2.5.8-4.9.8-4 0-4.4-.2-5-3-.9-4-5.1-8.9-9.2-10.6-4.2-1.8-14.4-1.8-18.7 0-4.8 2-7.6 6.1-7.6 11.1 0 7.1 3.8 9.5 19.4 12 16.7 2.6 22.8 5.9 26.1 13.7 4.7 11.3-2.2 24.5-14.6 28.3-5.9 1.7-17.6 2-22.9.5-9.3-2.6-17.6-11.2-18.2-19l-.3-3.5h4.4c4.2 0 4.5.2 5.8 3.9 2.6 7.8 8.8 11.5 18.9 11.6 11.2 0 18.4-5.2 18.4-13.4 0-7.8-4.1-10.6-18.7-13-12.2-2-16.4-3.2-20.3-5.8-7-4.8-9.4-11.9-7.1-20.6 1.5-5.4 7.3-11.4 13.2-13.6 6.5-2.3 23-1.7 28.4 1.1"/>
    <path d="M48.14 296.633c.002-2.277.063-3.518.2-4.03.568-2.119 2.218-4.368 6.89-9.39 1.02-1.098 6.88-7.054 13.022-13.237 6.141-6.182 12.466-12.604 14.055-14.272 7.716-8.098 13.257-14.241 15.239-16.895.943-1.263 2.54-4.372 3.25-6.324 2.16-5.948 2.132-11.843-.078-16.519-.884-1.869-1.567-2.859-3.007-4.359-3.87-4.03-9.597-5.867-16.563-5.313-6.753.537-11.264 2.616-14.857 6.847-1.754 2.066-2.911 4.383-4.312 8.638-1.547 4.695-1.911 5.108-4.763 5.401-1.79.184-5.485.083-6.733-.185-1.587-.34-2.196-1.447-2.196-3.988 0-7.841 9.964-21.107 19.152-25.497 7.107-3.397 21.286-3.594 29.8-.414 5.91 2.207 11.004 6.106 14.161 10.84 3.071 4.603 4.492 10.02 4.283 16.332-.353 10.661-4.717 18.27-19.642 34.25-2.694 2.884-2.914 3.112-18.11 18.705L66.113 289.35l25.545.037 25.546.037v10.5H48.139Z"
          style="fill:#f9f9f9;stroke-width:.147891" transform="scale(.75)"/>
    <path d="M48.008 124.915c.015-41.432.453-78.143.953-79.786.206-.678 1.611-.851 5.732-.708 2.128.075 4.305.192 4.838.26l.969.126.137 10.276c.176 13.196.537 61.929.538 72.76l.001 8.314h56.053v10.458H48Z"
          style="fill:#f9f9f9;stroke-width:.20915" transform="scale(.75)"/>
    <path d="M253.873 299.778c-2.425-.151-4.58-.389-6.181-.682-10.538-1.928-21.42-10.698-25.241-20.344-.715-1.804-1.128-3.671-1.35-6.114a448 448 0 0 0-.298-3.157l-.08-.79 4.698.064c3.812.052 4.838.11 5.438.305 1.428.466 2.063 1.36 3.191 4.491 1.54 4.275 3.148 6.911 5.733 9.402 3.445 3.32 7.965 5.245 14.368 6.122 2.577.353 8.237.35 10.847-.007 10.032-1.369 16.5-6.019 18.543-13.333.388-1.39.41-1.635.408-4.502-.002-2.68-.042-3.187-.344-4.363-.964-3.754-3.046-6.157-7.048-8.136-4.117-2.035-7.891-3.016-19.04-4.946-9.216-1.596-12.73-2.325-16.441-3.41-5.77-1.687-9.929-4.122-13.515-7.91-4.006-4.234-6.094-9.538-6.094-15.487 0-2.465.618-6.42 1.357-8.694 1.645-5.055 6.311-10.782 11.808-14.491 5.373-3.626 10.361-4.739 21.264-4.744 9.57-.004 17.428 1.13 21.697 3.13 3.082 1.444 8.825 5.974 10.572 8.34 3.744 5.067 8.155 16.45 6.872 17.734-.666.665-3.585 1.034-7.443.94-2.943-.073-3.502-.184-4.21-.835-.593-.546-.746-.896-1.265-2.9-1.338-5.16-5.675-10.651-10.66-13.495-2.692-1.535-6.132-2.296-11.487-2.542-5.534-.253-11.397.326-14.472 1.43-5.326 1.912-9.138 6.004-10.462 11.233-.285 1.123-.33 1.691-.33 4.113.002 2.484.041 2.946.34 3.993.51 1.78 1.145 2.933 2.282 4.15 3.308 3.544 8.808 5.34 24.209 7.905 9.443 1.573 14.672 2.85 19.47 4.75 4.028 1.597 6.833 3.352 9.302 5.822 3.287 3.288 5.451 7.56 6.54 12.91.416 2.042.37 7.087-.084 9.348-1.825 9.091-7.885 16.868-16.365 21.002-4.025 1.963-7.912 2.887-14.576 3.467-3.202.28-9.3.397-11.953.231z"
          style="fill:#f9f9f9;stroke-width:.147891" transform="scale(.75)"/>
</svg>