<?xml version="1.0" encoding="UTF-8" standalone="no"?>
<svg
   width="465"
   height="43"
   fill="none"
   version="1.1"
   id="svg2"
   xmlns="http://www.w3.org/2000/svg"
   xmlns:svg="http://www.w3.org/2000/svg">
  <defs
     id="defs2" />
  <g
     id="g2">
    <path
       fill="#d9d9d9"
       d="M 0.173,13.528 V 1.373 h 3.502 v 9.452 h 4.59 v 2.703 z m 11.495,0.204 q -1.308,0 -2.159,-0.663 -0.85,-0.662 -0.85,-2.006 0,-2.907 4.726,-2.907 h 0.85 V 7.952 q 0,-0.697 -0.255,-1.054 -0.237,-0.357 -0.918,-0.357 -1.07,0 -1.207,1.054 H 9 q 0.102,-1.564 1.241,-2.38 1.139,-0.816 3.01,-0.816 1.904,0 2.957,0.833 1.054,0.817 1.054,2.533 v 5.763 h -2.958 v -1.037 q -0.816,1.241 -2.635,1.241 m 1.054,-2.057 q 0.663,0 1.088,-0.34 0.425,-0.357 0.425,-0.918 V 9.873 h -0.799 q -0.934,0 -1.36,0.221 -0.408,0.204 -0.408,0.748 0,0.833 1.054,0.833 m 6.742,4.828 1.48,-3.876 -3.554,-7.99 h 3.298 l 1.836,4.743 1.7,-4.743 h 2.907 l -4.76,11.866 z m 12.03,-2.77 q -2.142,0 -3.485,-1.208 -1.344,-1.206 -1.343,-3.332 V 9.057 q 0,-2.091 1.377,-3.366 Q 29.42,4.4 31.477,4.4 q 1.955,0 3.23,1.156 1.29,1.157 1.291,3.434 v 0.8 h -6.255 q 0.067,0.884 0.544,1.376 0.492,0.476 1.309,0.476 1.342,0 1.546,-1.054 h 2.856 q -0.204,1.513 -1.36,2.33 -1.139,0.815 -3.144,0.815 M 29.776,8.07 h 3.265 q -0.085,-1.666 -1.564,-1.666 -0.697,0 -1.14,0.442 -0.441,0.426 -0.56,1.224 m 7.016,5.457 v -8.89 h 3.043 v 1.767 q 0.816,-1.903 2.873,-1.887 v 2.84 Q 39.836,7.271 39.836,9.311 v 4.216 z m 5.996,0 v -0.493 l 4.25,-4.505 q 1.02,-1.088 1.513,-1.853 0.493,-0.782 0.493,-1.496 0,-0.629 -0.34,-0.986 -0.322,-0.374 -0.952,-0.374 -1.36,0 -1.564,1.972 h -3.162 q 0.085,-2.244 1.36,-3.417 1.292,-1.173 3.536,-1.173 2.176,0 3.366,1.054 1.19,1.054 1.19,2.788 0,1.173 -0.578,2.16 -0.577,0.986 -1.717,2.073 l -1.7,1.65 h 4.08 v 2.6 z m 15.44,0.204 q -2.534,0 -3.842,-1.037 -1.308,-1.037 -1.395,-3.024 h 3.315 q 0.068,0.749 0.493,1.173 0.426,0.408 1.428,0.408 0.73,0 1.14,-0.323 0.423,-0.34 0.424,-0.884 0,-0.543 -0.39,-0.765 Q 59.01,9.042 57.872,8.871 55.304,8.565 54.284,7.715 53.281,6.849 53.281,4.995 q 0,-1.665 1.275,-2.72 1.292,-1.07 3.434,-1.07 4.47,0 4.794,3.79 h -3.23 Q 59.367,3.686 57.99,3.686 q -0.68,0 -1.054,0.29 a 0.89,0.89 0 0 0 -0.357,0.747 q 0,0.528 0.391,0.782 0.391,0.255 1.496,0.408 2.448,0.271 3.554,1.087 1.105,0.8 1.105,2.686 0,1.734 -1.309,2.89 -1.309,1.156 -3.587,1.156 m 9.307,0 q -3.128,0 -3.128,-3.06 V 6.712 H 63.337 V 4.636 h 1.071 V 2.784 h 3.043 v 1.853 h 1.751 V 6.711 H 67.45 v 3.672 q 0,0.936 0.901,0.935 0.459,0 0.867,-0.153 v 2.312 q -0.985,0.255 -1.683,0.255 m 5.06,0 q -1.308,0 -2.159,-0.663 -0.85,-0.662 -0.85,-2.006 0,-2.907 4.726,-2.907 h 0.85 V 7.952 q 0,-0.697 -0.255,-1.054 -0.237,-0.357 -0.918,-0.357 -1.07,0 -1.207,1.054 h -2.856 q 0.102,-1.564 1.241,-2.38 1.139,-0.816 3.01,-0.816 1.904,0 2.957,0.833 1.054,0.817 1.054,2.533 v 5.763 H 75.23 v -1.037 q -0.816,1.241 -2.635,1.241 m 1.054,-2.057 q 0.663,0 1.088,-0.34 0.425,-0.357 0.425,-0.918 V 9.873 h -0.799 q -0.934,0 -1.36,0.221 -0.408,0.204 -0.408,0.748 0,0.833 1.054,0.833 m 9.219,2.057 q -3.129,0 -3.128,-3.06 V 6.712 H 78.668 V 4.636 H 79.74 V 2.784 h 3.043 v 1.853 h 1.75 v 2.074 h -1.75 v 3.672 q 0,0.936 0.9,0.935 0.459,0 0.867,-0.153 v 2.312 q -0.986,0.255 -1.682,0.255 m 6.913,0 q -2.142,0 -3.485,-1.207 -1.343,-1.206 -1.343,-3.332 V 9.057 q 0,-2.091 1.377,-3.366 1.377,-1.291 3.434,-1.291 1.955,0 3.23,1.156 1.292,1.157 1.292,3.434 v 0.8 H 88.03 q 0.068,0.884 0.544,1.376 0.493,0.476 1.309,0.476 1.342,0 1.547,-1.054 h 2.856 q -0.204,1.513 -1.36,2.33 -1.14,0.815 -3.145,0.815 m -1.717,-5.66 h 3.264 q -0.085,-1.667 -1.564,-1.667 -0.697,0 -1.14,0.442 -0.44,0.426 -0.56,1.224"
       id="path1" />
    <path
       fill="#999999"
       d="M 99.697,13.528 V 1.373 h 7.106 V 2.58 h -5.627 v 4.301 h 4.386 v 1.207 h -4.386 v 5.44 z m 11.86,-1.02 q 1.325,0 2.108,-0.918 0.799,-0.918 0.799,-2.43 V 9.04 q 0,-1.547 -0.799,-2.465 -0.783,-0.918 -2.108,-0.918 -1.344,0 -2.125,0.918 -0.782,0.918 -0.782,2.448 v 0.136 q 0,1.53 0.782,2.448 0.781,0.901 2.125,0.901 m -0.017,1.173 q -1.887,0 -3.128,-1.275 -1.224,-1.291 -1.224,-3.247 V 9.023 q 0,-1.989 1.224,-3.264 1.24,-1.275 3.145,-1.275 1.904,0 3.128,1.275 1.24,1.258 1.241,3.247 v 0.136 q 0,2.007 -1.241,3.281 -1.242,1.258 -3.145,1.258 m 9.07,0 q -1.412,0 -2.261,-0.833 -0.834,-0.832 -0.833,-2.584 V 4.637 h 1.411 v 5.56 q 0,1.172 0.493,1.716 0.51,0.544 1.564,0.544 1.003,0 1.717,-0.646 0.73,-0.645 0.731,-1.785 V 4.637 h 1.411 v 8.891 h -1.411 v -1.41 q -0.324,0.68 -1.071,1.121 -0.731,0.442 -1.751,0.442 m 6.574,-0.153 v -8.89 h 1.411 v 1.41 q 0.324,-0.68 1.071,-1.122 0.748,-0.442 1.785,-0.442 1.463,0 2.295,0.867 0.834,0.867 0.833,2.72 v 5.457 h -1.411 V 7.97 q 0,-1.173 -0.51,-1.717 -0.51,-0.543 -1.581,-0.544 -1.036,0 -1.768,0.646 -0.714,0.647 -0.714,1.785 v 5.39 z m 12.999,0.153 q -1.785,0 -2.907,-1.19 -1.105,-1.19 -1.105,-3.23 V 9.125 q 0,-2.04 1.156,-3.332 1.156,-1.309 2.992,-1.309 1.972,0 2.907,1.581 V 0.387 h 1.411 v 13.141 h -1.411 v -1.53 q -0.408,0.68 -1.258,1.19 a 3.5,3.5 0 0 1 -1.785,0.493 m 0.153,-1.173 q 1.31,0 2.125,-0.85 0.816,-0.866 0.816,-2.516 V 9.006 q 0,-1.665 -0.748,-2.499 -0.73,-0.85 -2.074,-0.85 -1.326,0 -2.074,0.901 -0.748,0.885 -0.748,2.5 v 0.135 q 0,1.616 0.748,2.465 0.765,0.85 1.955,0.85 m 8.874,1.173 q -1.31,0 -2.142,-0.646 -0.816,-0.663 -0.816,-1.972 0,-1.428 1.258,-2.09 1.275,-0.664 3.196,-0.664 h 1.275 V 7.663 q 0,-1.071 -0.442,-1.53 -0.442,-0.476 -1.462,-0.476 -1.836,0 -2.04,1.598 h -1.411 q 0.135,-1.428 1.122,-2.09 0.986,-0.68 2.397,-0.68 3.246,0 3.247,3.178 v 5.865 h -1.411 v -1.122 q -1.02,1.275 -2.771,1.275 m 0.136,-1.122 q 1.155,0 1.887,-0.56 0.748,-0.579 0.748,-1.582 V 9.312 h -1.224 q -3.094,0 -3.094,1.751 0,1.496 1.683,1.496 m 9.01,1.088 q -1.173,0 -1.785,-0.629 -0.612,-0.628 -0.612,-1.717 V 5.827 h -1.275 v -1.19 h 1.275 V 2.614 h 1.411 v 2.023 h 2.074 v 1.19 h -2.074 v 5.338 q 0,1.292 1.105,1.292 0.612,0 1.088,-0.187 v 1.19 a 3.6,3.6 0 0 1 -1.207,0.187 m 2.864,-0.119 v -8.89 h 1.411 v 8.89 z M 162.546,2.512 A 0.88,0.88 0 0 1 161.9,2.784 0.94,0.94 0 0 1 161.237,2.512 0.9,0.9 0 0 1 160.965,1.849 q 0,-0.39 0.272,-0.663 A 0.94,0.94 0 0 1 161.9,0.914 q 0.375,0 0.646,0.272 a 0.88,0.88 0 0 1 0.289,0.663 q 0,0.392 -0.289,0.663 m 6.169,9.996 q 1.326,0 2.108,-0.918 0.8,-0.918 0.799,-2.43 V 9.04 q 0,-1.547 -0.799,-2.465 -0.782,-0.918 -2.108,-0.918 -1.342,0 -2.125,0.918 -0.783,0.918 -0.782,2.448 v 0.136 q 0,1.53 0.782,2.448 0.783,0.901 2.125,0.901 m -0.017,1.173 q -1.887,0 -3.128,-1.275 -1.224,-1.291 -1.224,-3.247 V 9.023 q 0,-1.989 1.224,-3.264 1.242,-1.275 3.145,-1.275 1.905,0 3.128,1.275 1.242,1.258 1.241,3.247 v 0.136 q 0,2.007 -1.241,3.281 -1.24,1.258 -3.145,1.258 m 6.061,-0.153 v -8.89 h 1.411 v 1.41 q 0.323,-0.68 1.071,-1.122 0.749,-0.442 1.785,-0.442 1.462,0 2.295,0.867 0.833,0.867 0.833,2.72 v 5.457 h -1.411 V 7.97 q 0,-1.173 -0.51,-1.717 -0.51,-0.543 -1.581,-0.544 -1.037,0 -1.768,0.646 -0.714,0.647 -0.714,1.785 v 5.39 z"
       id="path2" />
  </g>
</svg>
